<?xml version="1.0" encoding="utf-8" ?>
<svg baseProfile="full" height="1024" version="1.1" width="1024" xmlns="http://www.w3.org/2000/svg" xmlns:ev="http://www.w3.org/2001/xml-events" xmlns:xlink="http://www.w3.org/1999/xlink"><defs /><polygon fill="black" points="187,290 186,291 186,294 185,295 185,297 184,298 184,301 183,302 183,304 182,305 182,308 181,309 181,312 180,313 180,315 179,316 179,319 178,320 178,322 177,323 177,326 176,327 176,329 175,330 175,333 174,334 174,336 173,337 173,340 172,341 172,343 171,344 171,346 170,347 170,349 169,350 169,352 168,353 168,356 167,357 167,359 166,360 166,362 165,363 165,365 164,366 164,368 163,369 163,372 162,373 162,375 161,376 161,378 160,379 160,381 159,382 159,384 158,385 158,387 157,388 157,390 156,391 156,393 155,394 155,396 154,397 154,398 158,398 159,397 288,397 289,398 289,399 288,400 288,402 287,403 287,405 286,406 286,408 285,409 285,412 284,413 284,415 283,416 283,418 282,419 282,422 281,423 281,425 280,426 280,428 279,429 279,432 278,433 278,435 277,436 277,438 276,439 276,442 275,443 275,445 274,446 274,448 273,449 273,452 272,453 272,455 271,456 271,458 270,459 270,462 269,463 269,465 268,466 268,468 267,469 267,471 266,472 266,475 265,476 265,478 264,479 264,482 263,483 263,485 262,486 262,488 261,489 261,492 260,493 260,495 259,496 259,499 258,500 258,502 257,503 257,505 256,506 256,508 255,509 255,512 254,513 254,515 253,516 253,518 252,519 252,522 251,523 251,525 250,526 250,528 249,529 249,532 248,533 248,535 247,536 247,538 246,539 246,542 245,543 245,545 244,546 244,548 243,549 243,552 242,553 242,555 241,556 241,558 240,559 240,561 239,562 239,565 238,566 238,568 237,569 237,571 236,572 236,575 235,576 235,578 234,579 234,581 233,582 233,585 232,586 232,588 231,589 231,591 230,592 230,595 229,596 229,598 228,599 228,601 227,602 227,605 226,606 226,608 225,609 225,611 224,612 224,615 223,616 223,618 222,619 222,621 221,622 221,625 220,626 220,628 219,629 219,631 218,632 218,635 217,636 217,638 216,639 216,642 215,643 215,645 214,646 214,648 213,649 213,652 212,653 212,655 211,656 211,658 210,659 210,662 209,663 209,665 208,666 208,668 207,669 207,672 206,673 206,675 205,676 205,678 204,679 204,682 203,683 203,685 202,686 202,688 201,689 201,692 200,693 200,695 199,696 199,698 198,699 198,702 197,703 197,705 196,706 196,708 195,709 195,711 194,712 194,715 193,716 193,718 192,719 192,721 191,722 191,724 190,725 190,727 189,728 189,730 188,731 335,731 335,729 336,728 336,725 337,724 337,722 338,721 338,718 339,717 339,714 340,713 340,711 341,710 341,707 342,706 342,704 343,703 343,700 344,699 344,697 345,696 345,694 346,693 346,690 347,689 347,687 348,686 348,684 349,683 349,680 350,679 350,677 351,676 351,674 352,673 352,670 353,669 353,667 354,666 354,664 355,663 355,660 356,659 356,657 357,656 357,654 358,653 358,650 359,649 359,647 360,646 360,644 361,643 361,640 362,639 362,637 363,636 363,634 364,633 364,630 365,629 365,627 366,626 366,624 367,623 367,620 368,619 368,617 369,616 369,614 370,613 370,610 371,609 371,607 372,606 372,604 373,603 373,601 374,600 374,597 375,596 375,594 376,593 376,591 377,590 377,587 378,586 378,584 379,583 379,581 380,580 380,577 381,576 381,574 382,573 382,571 383,570 383,568 384,567 384,564 385,563 385,561 386,560 386,558 387,557 387,554 388,553 388,551 389,550 389,548 390,547 390,545 391,544 391,541 392,540 392,538 393,537 393,535 394,534 394,531 395,530 395,528 396,527 396,525 397,524 397,521 398,520 398,518 399,517 399,515 400,514 400,511 401,510 401,508 402,507 402,505 403,504 403,502 404,501 404,498 405,497 405,495 406,494 406,492 407,491 407,488 408,487 408,485 409,484 409,482 410,481 410,479 411,478 411,475 412,474 412,472 413,471 413,469 414,468 414,466 415,465 415,462 416,461 416,459 417,458 417,456 418,455 418,452 419,451 419,449 420,448 420,446 421,445 421,443 422,442 422,439 423,438 423,436 424,435 424,433 425,432 425,429 426,428 426,426 427,425 427,423 428,422 428,419 429,418 429,416 430,415 430,413 431,412 431,410 432,409 432,406 433,405 433,403 434,402 434,400 435,399 435,398 436,397 694,397 695,398 708,398 709,399 714,399 715,400 717,400 718,401 720,401 721,402 722,402 723,403 724,403 733,412 733,413 734,414 734,415 735,416 735,417 736,418 736,421 737,422 737,432 736,433 736,436 735,437 735,439 734,440 734,441 733,442 733,443 732,444 732,445 731,446 731,447 729,449 729,450 721,458 720,458 717,461 716,461 715,462 714,462 713,463 712,463 711,464 710,464 709,465 708,465 707,466 705,466 704,467 702,467 701,468 699,468 698,469 695,469 694,470 689,470 688,471 681,471 680,472 668,472 667,473 565,473 564,474 563,473 552,473 551,474 550,474 549,473 547,473 546,474 545,474 544,473 540,473 539,474 538,473 536,473 535,474 466,474 466,475 465,476 465,480 464,481 464,485 463,486 463,489 462,490 462,493 461,494 461,497 460,498 460,501 459,502 459,505 458,506 458,509 457,510 457,513 456,514 456,516 455,517 455,520 454,521 454,523 453,524 453,526 452,527 452,530 451,531 451,533 450,534 450,536 449,537 449,539 448,540 448,543 447,544 447,546 446,547 446,549 445,550 445,552 444,553 444,555 443,556 443,558 442,559 442,561 441,562 441,564 440,565 440,567 534,567 535,566 558,566 562,570 562,571 566,575 566,576 570,580 570,581 573,584 573,585 577,589 577,590 580,593 580,594 584,598 584,599 587,602 587,603 591,607 591,608 595,612 595,613 598,616 598,617 602,621 602,622 606,626 606,627 609,630 609,631 613,635 613,636 617,640 617,641 621,645 621,646 624,649 624,650 628,654 628,655 632,659 632,660 635,663 635,664 639,668 639,669 643,673 643,674 646,677 646,678 650,682 650,683 654,687 654,688 657,691 657,692 661,696 661,697 664,700 664,701 668,705 668,706 672,710 672,711 675,714 675,715 679,719 679,720 682,723 682,724 687,729 687,730 688,731 850,731 848,729 848,728 844,724 844,723 839,718 839,717 835,713 835,712 831,708 831,707 827,703 827,702 823,698 823,697 819,693 819,692 815,688 815,687 811,683 811,682 807,678 807,677 803,673 803,672 799,668 799,667 795,663 795,662 791,658 791,657 787,653 787,652 783,648 783,647 779,643 779,642 775,638 775,637 771,633 771,632 767,628 767,627 763,623 763,622 759,618 759,617 754,612 754,611 751,608 751,607 747,603 747,602 743,598 743,597 738,592 738,591 735,588 735,587 731,583 731,582 727,578 727,577 723,573 723,572 720,569 720,568 717,565 718,564 738,564 739,563 746,563 747,562 753,562 754,561 757,561 758,560 761,560 762,559 765,559 766,558 768,558 769,557 771,557 772,556 774,556 775,555 776,555 777,554 779,554 780,553 781,553 782,552 783,552 784,551 785,551 786,550 787,550 788,549 789,549 790,548 791,548 792,547 793,547 794,546 795,546 797,544 798,544 799,543 800,543 802,541 803,541 805,539 806,539 808,537 809,537 812,534 813,534 836,511 836,510 840,506 840,505 842,503 842,502 844,500 844,499 846,497 846,496 848,494 848,493 849,492 849,491 850,490 850,489 852,487 852,486 853,485 853,484 854,483 854,482 855,481 855,480 856,479 856,478 857,477 857,476 858,475 858,474 859,473 859,472 860,471 860,469 861,468 861,467 862,466 862,464 863,463 863,462 864,461 864,459 865,458 865,456 866,455 866,453 867,452 867,449 868,448 868,445 869,444 869,441 870,440 870,436 871,435 871,429 872,428 872,419 873,418 873,396 872,395 872,388 871,387 871,383 870,382 870,379 869,378 869,375 868,374 868,372 867,371 867,370 866,369 866,367 865,366 865,365 864,364 864,363 863,362 863,361 862,360 862,359 861,358 861,357 860,356 860,355 859,354 859,353 857,351 857,350 855,348 855,347 853,345 853,344 849,340 849,339 840,330 839,330 834,325 833,325 831,323 830,323 827,320 826,320 824,318 823,318 822,317 821,317 819,315 818,315 817,314 816,314 815,313 814,313 813,312 812,312 811,311 810,311 809,310 808,310 807,309 806,309 805,308 804,308 803,307 802,307 801,306 799,306 798,305 797,305 796,304 794,304 793,303 791,303 790,302 788,302 787,301 785,301 784,300 782,300 781,299 778,299 777,298 774,298 773,297 770,297 769,296 765,296 764,295 760,295 759,294 754,294 753,293 747,293 746,292 737,292 736,291 188,291" /></svg>